<svg xmlns="http://www.w3.org/2000/svg" width="280" height="100" viewBox="0 0 280 100">
  <!-- Background -->
  <rect width="280" height="100" fill="#1E603F"/>
  
  <!-- Stars with dashed lines (arc above logo) -->
  <g opacity="0.9">
    <path d="M 20 15 L 22 19 L 26 19 L 22 22 L 24 26 L 20 23 L 16 26 L 18 22 L 14 19 L 18 19 Z" fill="white"/>
    <path d="M 35 12 L 37 16 L 41 16 L 37 19 L 39 23 L 35 20 L 31 23 L 33 19 L 29 16 L 33 16 Z" fill="white"/>
    <path d="M 50 15 L 52 19 L 56 19 L 52 22 L 54 26 L 50 23 L 46 26 L 48 22 L 44 19 L 48 19 Z" fill="white"/>
    <path d="M 65 12 L 67 16 L 71 16 L 67 19 L 69 23 L 65 20 L 61 23 L 63 19 L 59 16 L 63 16 Z" fill="white"/>
    <line x1="22" y1="19" x2="37" y2="16" stroke="white" stroke-width="0.5" stroke-dasharray="2,2" opacity="0.6"/>
    <line x1="37" y1="16" x2="52" y2="19" stroke="white" stroke-width="0.5" stroke-dasharray="2,2" opacity="0.6"/>
    <line x1="52" y1="19" x2="67" y2="16" stroke="white" stroke-width="0.5" stroke-dasharray="2,2" opacity="0.6"/>
  </g>
  
  <!-- Combined heart/tooth shape icon -->
  <g transform="translate(10, 30)">
    <!-- Female profile silhouette (left part of heart) -->
    <path d="M 5 50 Q 3 45, 3 38 Q 3 30, 5 25 Q 7 20, 10 18 Q 12 16, 15 16 Q 18 16, 20 18 Q 22 20, 23 23 Q 24 26, 24 30 Q 24 34, 23 37 Q 22 40, 20 42 Q 18 44, 16 45 Q 14 46, 12 47 Q 10 48, 8 49 Q 6 50, 5 50 Z" fill="white"/>
    
    <!-- Tooth/lightbulb shape (right part of heart) -->
    <path d="M 24 30 Q 26 28, 28 30 Q 30 32, 31 35 Q 32 38, 32 42 Q 32 45, 31 48 Q 30 50, 28 52 Q 27 53, 26 54 Q 25 55, 24 56 Q 23 57, 24 58 Q 25 59, 26 58 Q 27 57, 28 56 Q 29 55, 30 54 Q 31 52, 32 50 Q 33 48, 33 45 Q 33 42, 32 38 Q 31 34, 30 32 Q 29 30, 27 28 Q 25 26, 24 30 Z" fill="#A0D468"/>
    
    <!-- Horizontal lines at bottom (roots/filaments) -->
    <line x1="26" y1="50" x2="30" y2="50" stroke="white" stroke-width="1" opacity="0.8"/>
    <line x1="27" y1="53" x2="29" y2="53" stroke="white" stroke-width="1" opacity="0.8"/>
    <line x1="27.5" y1="56" x2="28.5" y2="56" stroke="white" stroke-width="1" opacity="0.8"/>
  </g>
  
  <!-- Text: Laxmi -->
  <text x="85" y="45" font-family="Georgia, serif" font-size="28" font-weight="bold" fill="white">Laxmi</text>
  
  <!-- Tooth icon replacing dot on 'i' -->
  <path d="M 163 38 Q 162.5 38.5, 162.5 39 Q 162.5 39.5, 163 40 Q 163.5 39.5, 163.5 39 Q 163.5 38.5, 163 38 Z" fill="white"/>
  
  <!-- Tagline: Face and Multispeciality -->
  <text x="85" y="58" font-family="Arial, sans-serif" font-size="10" fill="white">Face and Multispeciality</text>
  
  <!-- Tagline: Dental Hospital (bolder) -->
  <text x="85" y="70" font-family="Arial, sans-serif" font-size="10" font-weight="bold" fill="white">Dental Hospital</text>
  
  <!-- Slogan: — Where Smiles Meet Expertise — -->
  <text x="85" y="82" font-family="Arial, sans-serif" font-size="8.5" fill="white" opacity="0.9">— Where Smiles Meet Expertise —</text>
</svg>



